<svg width="1163" height="1399" viewBox="0 0 1163 1399" fill="none" xmlns="http://www.w3.org/2000/svg">
<g filter="url(#filter0_d_3_36)">
<path fill-rule="evenodd" clip-rule="evenodd" d="M439.195 776.814C240.783 891.289 106.368 1022.32 44.0975 1133.06C12.5104 1189.24 -3.15345 1244.99 7.13485 1292.24C12.4392 1316.6 24.5842 1338.07 43.7957 1354.63C62.7402 1370.96 86.9744 1381.19 114.702 1386.15C166.757 1395.47 216.52 1391.72 262.196 1371.79C307.816 1351.9 346.85 1316.97 379.34 1268.06C442.12 1173.56 482.734 1023.5 501.004 812.987C608.368 732.965 687.628 662.96 751.141 580.993C806.767 509.205 849.434 429.393 888.904 327.661C1035.03 547.979 1100.39 708.836 1094.65 850.274C1088.55 1000.78 1001.33 1137.96 819.768 1308.92L863.641 1355.52C1048.34 1181.61 1151.44 1029.39 1158.6 852.87C1165.69 678.062 1078.1 488.125 906.757 239.881L871.007 188.087L850.218 247.489C805.81 374.378 760.895 463.916 700.551 541.793C650.684 606.149 589.439 663.64 507.041 727.939C523.996 550.048 576.404 365.288 627.239 186.077C634.695 159.791 642.117 133.625 649.389 107.617L679.407 0.25061L597.014 75.3501L397.252 257.429C360.822 282.931 297.855 309.824 238.116 331.811C178.567 353.728 126.009 369.434 115.019 372.612C105.921 375.242 98.3479 380.534 92.705 385.511C86.6787 390.825 80.9963 397.424 75.8635 404.959C65.5617 420.083 56.5896 440.267 51.4219 465.028C41.0059 514.937 46.0725 582.942 85.7845 667.297L143.689 640.037C108.793 565.913 106.982 512.075 114.072 478.103C117.657 460.925 123.534 448.659 128.758 440.989C131.388 437.128 133.638 434.744 135.036 433.511C135.078 433.474 135.119 433.439 135.159 433.404C150.741 428.832 202.218 413.22 260.221 391.872C320.602 369.649 391.969 339.83 435.929 308.464C480.09 276.954 519.336 242.782 553.967 209.815C501.948 393.748 449.436 589.281 439.195 776.814ZM136 432.746C136 432.749 135.951 432.784 135.853 432.844C135.95 432.773 135.999 432.743 136 432.746ZM432.584 855.238C262.215 960.018 150.943 1073.62 99.8833 1164.43C71.4262 1215.04 64.2696 1253.82 69.6696 1278.62C72.2093 1290.29 77.5357 1299.22 85.5835 1306.16C93.8982 1313.33 106.711 1319.7 125.979 1323.15C167.915 1330.66 204.516 1327.13 236.61 1313.13C268.761 1299.11 298.903 1273.48 326.032 1232.65C375.59 1158.05 412.943 1035.92 432.584 855.238Z" fill="#38BDF8"/>
</g>
<defs>
<filter id="filter0_d_3_36" x="-0.00708389" y="0.25061" width="1163.01" height="1398.75" filterUnits="userSpaceOnUse" color-interpolation-filters="sRGB">
<feFlood flood-opacity="0" result="BackgroundImageFix"/>
<feColorMatrix in="SourceAlpha" type="matrix" values="0 0 0 0 0 0 0 0 0 0 0 0 0 0 0 0 0 0 127 0" result="hardAlpha"/>
<feOffset dy="4"/>
<feGaussianBlur stdDeviation="2"/>
<feComposite in2="hardAlpha" operator="out"/>
<feColorMatrix type="matrix" values="0 0 0 0 0 0 0 0 0 0 0 0 0 0 0 0 0 0 0.25 0"/>
<feBlend mode="normal" in2="BackgroundImageFix" result="effect1_dropShadow_3_36"/>
<feBlend mode="normal" in="SourceGraphic" in2="effect1_dropShadow_3_36" result="shape"/>
</filter>
</defs>
</svg>
