<svg width="1228" height="1530" viewBox="0 0 1228 1530" fill="none" xmlns="http://www.w3.org/2000/svg">
<g filter="url(#filter0_d_3_37)">
<path fill-rule="evenodd" clip-rule="evenodd" d="M441.302 856.793C247.824 971.031 113.561 1101.92 49.2046 1216.38C16.0526 1275.34 -3.86494 1339.57 8.8675 1398.05C15.5542 1428.76 31.1085 1456.5 55.9019 1477.87C80.1613 1498.78 110.106 1510.93 142.064 1516.65C199.178 1526.87 255.521 1523.01 307.989 1500.13C360.343 1477.29 403.824 1437.71 438.994 1384.77C504.739 1285.81 545.596 1133.99 564.601 929.05C667.308 851.729 745.725 781.815 809.436 699.593C856.388 638.999 894.194 573.235 928.253 495.328C1049.67 687.633 1100.57 827.387 1095.68 947.977C1090.1 1085.48 1010.82 1215.14 830.831 1384.62L918.578 1477.81C1104.84 1302.43 1215.88 1142.69 1223.57 953.167C1231.13 767.065 1137.83 569.512 966.093 320.704L894.592 217.114L853.014 335.918C809.298 460.829 765.794 546.937 708.256 621.193C673.438 666.127 632.582 707.896 581.477 751.82C603.783 601.56 647.614 446.958 691.024 293.839C698.468 267.583 705.899 241.372 713.207 215.233L773.244 0.500977L608.458 150.7L410.272 331.342C377.366 353.878 318.958 379.104 260.063 400.78C201.441 422.356 149.65 437.83 139.131 440.871C123.801 445.303 112.113 453.831 104.539 460.51C96.199 467.866 88.8003 476.572 82.4163 485.944C69.5756 504.795 59.0558 528.938 53.0968 557.491C41.0178 615.368 47.7122 690.457 89.8324 779.927L205.641 725.407C173.153 656.398 172.97 609.644 178.397 583.641C180.744 572.397 184.173 564.736 186.802 560.236C209.144 553.483 254.308 539.293 304.274 520.903C364.56 498.714 439.667 467.653 487.515 433.513C501.302 423.676 514.62 413.59 527.473 403.373C487.393 551.541 451.508 706.353 441.302 856.793ZM425.173 1018.49C290.471 1110.24 202.709 1204.54 160.776 1279.11C133.884 1326.94 130.981 1357.24 133.937 1370.82C135.094 1376.13 137.011 1378.8 139.477 1380.92C142.477 1383.51 149.58 1387.96 164.617 1390.65C201.494 1397.25 231.515 1393.83 256.818 1382.8C282.233 1371.71 307.93 1350.74 332.378 1313.94C371.801 1254.6 404.519 1159.3 425.173 1018.49Z" fill="#38BDF8"/>
</g>
<defs>
<filter id="filter0_d_3_37" x="0.985443" y="0.500977" width="1227.01" height="1529.5" filterUnits="userSpaceOnUse" color-interpolation-filters="sRGB">
<feFlood flood-opacity="0" result="BackgroundImageFix"/>
<feColorMatrix in="SourceAlpha" type="matrix" values="0 0 0 0 0 0 0 0 0 0 0 0 0 0 0 0 0 0 127 0" result="hardAlpha"/>
<feOffset dy="4"/>
<feGaussianBlur stdDeviation="2"/>
<feComposite in2="hardAlpha" operator="out"/>
<feColorMatrix type="matrix" values="0 0 0 0 0 0 0 0 0 0 0 0 0 0 0 0 0 0 0.25 0"/>
<feBlend mode="normal" in2="BackgroundImageFix" result="effect1_dropShadow_3_37"/>
<feBlend mode="normal" in="SourceGraphic" in2="effect1_dropShadow_3_37" result="shape"/>
</filter>
</defs>
</svg>
